# xmcd
#
# Track frame offsets:
# 150
# 20297
# 35955
# 43953
# 66529
# 78548
# 98121
# 110739
# 127944
# 132375
# 151291
#
# Disc length: 2281 seconds
#
# Revision: 1
# Processed by: cddbd v1.5.2PL0 Copyright (c) Steve Scherf et al.
# Submitted via: CedeCatalogueitor 2.6.0.6 http://personales.ya.com/cdcatalogueitor
#
DISCID=9d08e70b
DTITLE=Jimmy Barnatán and The Cocooners - Room 13
DYEAR=2013
DGENRE=
TTITLE0=Cruce De Caminos
TTITLE1=Bad News
TTITLE2=Llamada Saliente
TTITLE3=Godiva's Blues
TTITLE4=Cuando Se Huye Hacia Atrás
TTITLE5=Put Three Candles On The Road For Me
TTITLE6=Una Copa De Sueños Rotos
TTITLE7=John The Revelator
TTITLE8=El Diablo Según Un Bartender
TTITLE9=The Devil's Song
TTITLE10=El Último Encuentro
EXTD=
EXTT0=
EXTT1=
EXTT2=
EXTT3=
EXTT4=
EXTT5=
EXTT6=
EXTT7=
EXTT8=
EXTT9=
EXTT10=
PLAYORDER=
